<svg width="2910" height="485" viewBox="0 0 2910 485" fill="none" xmlns="http://www.w3.org/2000/svg">
<path d="M669.61 232.852L591.367 186.764L558.141 167.471C545.279 159.968 530.273 159.968 517.411 167.471L365.212 255.361C352.351 262.863 337.345 262.863 324.483 255.361L173.356 167.471C160.494 159.968 145.489 159.968 132.627 167.471L99.4004 186.764L21.1572 232.852C-5.63835 248.93 -5.63835 287.515 21.1572 302.521L154.063 379.692L326.627 479.372C339.489 486.875 354.494 486.875 367.356 479.372L539.92 379.692L672.826 302.521C697.478 287.515 697.478 248.93 669.61 232.852Z" fill="url(#paint0_linear_47_14)"/>
<path d="M669.622 71.0086L557.08 5.62709C544.218 -1.8757 529.213 -1.8757 516.351 5.62709L364.152 93.517C351.29 101.02 336.284 101.02 323.423 93.517L171.224 5.62709C158.362 -1.8757 143.356 -1.8757 130.494 5.62709L20.0967 71.0086C-6.6989 87.086 -6.6989 125.672 20.0967 140.677L99.4116 186.766L153.003 217.849L325.566 317.529C338.428 325.031 353.434 325.031 366.296 317.529L538.859 217.849L592.45 186.766L671.765 140.677C697.489 125.672 697.489 87.086 669.622 71.0086Z" fill="url(#paint1_linear_47_14)"/>
<g opacity="0.3">
<path d="M324.478 318.616C337.34 326.119 352.345 326.119 365.207 318.616L537.771 218.936L591.362 187.853L558.135 168.561C545.273 161.058 530.268 161.058 517.406 168.561L365.207 256.45C352.345 263.953 337.34 263.953 324.478 256.45L173.351 167.489C160.489 159.986 145.483 159.986 132.622 167.489L99.395 186.782L152.986 217.864L324.478 318.616Z" fill="#F6921A"/>
</g>
<path fill-rule="evenodd" clip-rule="evenodd" d="M1901.36 101.85C1867.24 101.85 1841.57 110.28 1824.34 124.655C1807.02 139.105 1798.73 159.153 1798.73 181.196C1798.73 201.472 1804.13 218.037 1815.94 230.381C1827.67 242.643 1845.14 250.116 1868.05 253.504L1868.06 253.506L1928.92 262.809C1944.78 265.457 1955.36 269.971 1961.99 276.431C1968.46 282.735 1971.78 291.508 1971.78 304.192C1971.78 318.222 1968 328.551 1958.87 335.616C1949.43 342.919 1933.4 347.454 1907.18 347.454C1878.03 347.454 1859.37 340.355 1847.89 329.269C1836.42 318.198 1831.31 302.37 1830.94 283.146L1830.84 278.39H1814.06C1800.95 278.39 1789.07 289.266 1791.4 303.352C1795.03 325.379 1805.17 345.317 1824.13 359.676C1843.02 373.987 1870.18 382.374 1907.18 382.374C1943.76 382.374 1970.57 375.219 1988.3 360.984C2006.24 346.578 2014.07 325.59 2014.07 299.924C2014.07 278.158 2007.72 261.343 1994.81 249.072C1982.06 236.956 1963.49 229.83 1940.15 226.071L1875.73 216.369L1875.71 216.366C1861.72 214.154 1853.24 209.393 1848.21 203.47C1843.18 197.545 1841.02 189.787 1841.02 180.42C1841.02 167.234 1845.42 156.621 1854.64 149.177C1864.03 141.6 1879.07 136.77 1901.36 136.77C1924.85 136.77 1941.04 142.498 1951.72 151.78C1962.38 161.038 1968.2 174.394 1969.86 190.99L1970.3 195.358H1985.31C1999 195.358 2011.39 183.356 2007.4 168.724C2001.88 148.517 1990.4 131.665 1972.56 119.931C1954.8 108.24 1931.07 101.85 1901.36 101.85ZM2478.45 101.85C2432.5 101.85 2398.85 117.014 2376.76 142.623C2354.77 168.115 2344.78 203.329 2344.78 242.5C2344.78 282.238 2354.77 317.466 2376.77 342.824C2398.87 368.296 2432.53 383.15 2478.45 383.15C2524.38 383.15 2557.95 368.192 2579.95 342.666C2601.85 317.261 2611.73 282.038 2611.73 242.5C2611.73 203.529 2601.84 168.32 2579.96 142.781C2557.97 117.119 2524.41 101.85 2478.45 101.85ZM2388.24 242.5C2388.24 206.732 2395.44 180.846 2409.88 163.926C2424.18 147.166 2446.36 138.322 2478.45 138.322C2510.54 138.322 2532.62 147.166 2546.82 163.914C2561.17 180.831 2568.27 206.719 2568.27 242.5C2568.27 278.281 2561.17 304.168 2546.82 321.086C2532.62 337.834 2510.54 346.678 2478.45 346.678C2446.36 346.678 2424.18 337.833 2409.88 321.074C2395.44 304.154 2388.24 278.268 2388.24 242.5ZM2796.74 101.85C2762.63 101.85 2736.95 110.28 2719.72 124.655C2702.4 139.105 2694.12 159.153 2694.12 181.196C2694.12 201.472 2699.51 218.037 2711.32 230.381C2723.05 242.643 2740.52 250.116 2763.43 253.504L2763.44 253.506L2824.3 262.809C2840.17 265.457 2850.75 269.971 2857.38 276.431C2863.85 282.735 2867.17 291.508 2867.17 304.192C2867.17 318.222 2863.39 328.551 2854.26 335.616C2844.82 342.919 2828.78 347.454 2802.56 347.454C2773.41 347.454 2754.75 340.355 2743.27 329.269C2731.81 318.198 2726.69 302.37 2726.32 283.146L2726.23 278.39H2709.44C2696.33 278.39 2684.46 289.266 2686.78 303.352C2690.42 325.379 2700.55 345.317 2719.51 359.676C2738.41 373.987 2765.56 382.374 2802.56 382.374C2839.14 382.374 2865.96 375.219 2883.69 360.984C2901.63 346.578 2909.46 325.59 2909.46 299.924C2909.46 278.158 2903.11 261.343 2890.2 249.072C2877.45 236.956 2858.88 229.83 2835.54 226.071L2771.12 216.369L2771.1 216.366C2757.1 214.154 2748.63 209.393 2743.6 203.47C2738.57 197.545 2736.41 189.787 2736.41 180.42C2736.41 167.234 2740.81 156.621 2750.03 149.177C2759.41 141.6 2774.45 136.77 2796.74 136.77C2820.24 136.77 2836.42 142.498 2847.11 151.78C2857.76 161.038 2863.59 174.394 2865.25 190.99L2865.69 195.358H2880.69C2894.38 195.358 2906.78 183.356 2902.78 168.724C2897.27 148.517 2885.78 131.665 2867.95 119.931C2850.18 108.24 2826.46 101.85 2796.74 101.85ZM2091.66 108.841C2078.27 108.841 2067.41 119.698 2067.41 133.091V144.537H2160.53V376.949H2177.8C2191.19 376.949 2202.05 366.092 2202.05 352.699V144.537H2294.39V133.091C2294.39 119.698 2283.54 108.841 2270.14 108.841H2091.66ZM1616.42 108.841H1578.75L1489.4 343.688C1483.36 359.559 1495.09 376.561 1512.07 376.561H1519.86L1545.08 310.601H1666.06L1691.28 376.561H1699.5C1716.46 376.561 1728.18 359.584 1722.17 343.718L1639.1 124.498C1635.53 115.074 1626.5 108.841 1616.42 108.841ZM1652.68 274.905H1558.48L1605.74 150.654L1652.68 274.905ZM1270.66 108.841C1257.27 108.841 1246.41 119.698 1246.41 133.091V376.561H1399.09C1412.48 376.561 1423.34 365.704 1423.34 352.311V340.865H1288.32V108.841H1270.66ZM978.771 108.841C965.379 108.841 954.521 119.698 954.521 133.091V352.311C954.521 365.704 965.379 376.561 978.771 376.561H1132.03C1145.42 376.561 1156.28 365.704 1156.28 352.311V340.865H996.425V256.669H1119.23C1132.62 256.669 1143.48 245.812 1143.48 232.419V221.361H996.425V144.537H1155.12V133.091C1155.12 119.698 1144.26 108.841 1130.87 108.841H978.771Z" fill="white"/>
<defs>
<linearGradient id="paint0_linear_47_14" x1="345.237" y1="486.014" x2="345.237" y2="162.483" gradientUnits="userSpaceOnUse">
<stop stop-color="#F6921A"/>
<stop offset="1" stop-color="#B04200"/>
</linearGradient>
<linearGradient id="paint1_linear_47_14" x1="345.229" y1="123.045" x2="345.229" y2="324.279" gradientUnits="userSpaceOnUse">
<stop stop-color="#FFEEDC"/>
<stop offset="1" stop-color="#FFC382"/>
</linearGradient>
</defs>
</svg>
